<svg xmlns="http://www.w3.org/2000/svg" xmlns:xlink="http://www.w3.org/1999/xlink" x="0px" y="0px" viewBox="0 0 443.4 180" style="enable-background:new 0 0 443.4 180;" xml:space="preserve" width="443.3999938964844" height="180"> <style type="text/css"> .st0{fill:#0661AB;} .st1{fill:url(#SVGID_1_);} .st2{fill:#FFFFFF;} .st3{fill:url(#SVGID_2_);} .st4{fill:url(#SVGID_3_);} .st5{fill:url(#SVGID_4_);} .st6{fill:url(#SVGID_5_);} .st7{fill:url(#SVGID_6_);} .st8{fill:url(#SVGID_7_);} .st9{fill:url(#SVGID_8_);} .st10{fill:url(#SVGID_9_);} .st11{fill:url(#SVGID_10_);} .st12{fill:url(#SVGID_11_);} .st13{fill:url(#SVGID_12_);} .st14{fill:url(#SVGID_13_);} .st15{fill:url(#SVGID_14_);} .st16{fill:url(#SVGID_15_);} .st17{fill:url(#SVGID_16_);} </style> <g id="Guides_For_Artboard"> </g> <g id="Layer_1"> <path class="st0" d="M190.4,86.6c-1-23.7-12.6-44.5-30-58.3l1.9,8.6l-49,45.4c0,0-3.9,4.4-8.7-1L79.1,54l11.5-0.3l15.7,16.1 c0,0,3.1,3.9,7.6,0.7L121,64l7.6-6.6l31.9-29c-14.7-11.6-33.7-18.3-54.1-17.4c-44.6,1.9-79.3,38.8-77.5,82.5 c1.8,43.7,39.5,77.6,84.2,75.7C157.6,167.2,192.3,130.3,190.4,86.6z"></path> <linearGradient id="SVGID_1_" gradientUnits="userSpaceOnUse" x1="131.2676" y1="108.1505" x2="45.6594" y2="118.1873" gradientTransform="matrix(0.9873 -2.640000e-02 2.660000e-02 0.9968 21.358 -2.6806)"> <stop offset="2.747250e-02" style="stop-color:#9B6026"></stop> <stop offset="0.3132" style="stop-color:#F3AA1D"></stop> <stop offset="0.5495" style="stop-color:#DF9A26"></stop> <stop offset="0.7802" style="stop-color:#FAA821"></stop> <stop offset="1" style="stop-color:#CA7729"></stop> </linearGradient> <path class="st1" d="M144,108.6l27.3,32.4l-8.5,1.6l-42.7-49.8c0,0-4.2-4,1.3-8.5l27.7-24.2l-0.1,11.3l-16.4,14.9 c0,0-4,2.9-0.9,7.4l6.1,7.3L144,108.6z"></path> <g> <g> <polygon class="st0" points="254.8,58.2 295.5,57.9 284.2,68.8 259.6,68.8 260,90.1 261.9,90.1 262.2,70.9 287.8,70.9 278.2,82.2 268.9,82.2 268.9,77.4 276.8,77.4 278.2,75 266.5,75 266.5,95.9 254.9,95.9 254.9,64.6 282.5,64.6 283.9,63 254.9,63.2 "></polygon> <polygon class="st0" points="214.8,74.8 196.9,57.9 213.4,57.7 224.2,69 236.1,57.7 252.2,58 232.7,76.2 252,95.7 235.4,96.5 219.3,79.9 208.4,91.2 212.1,91.9 219.3,83.8 222.1,87.2 213,96.4 197.1,96.5 218.7,74.1 237.9,92 241.5,91.3 226.4,76.9 239.6,63.4 237.5,62.2 224.5,74.3 211.7,62.1 208.4,63.4 217.2,72.5 "></polygon> <polygon class="st0" points="296.3,57.7 296.4,88.7 318.3,89 317,90.3 296.3,90.3 296.3,95.4 319.6,95.4 330.4,82.7 301,82.7 301,61.6 302.7,61.6 302.7,80.9 306.7,80.9 306.9,57.8 "></polygon> <g> <g> <path class="st0" d="M347.8,58.8c-0.2,0-0.4,0-0.6,0l-0.1,4c0.2,0,0.4,0,0.6,0c7.6,0,13.7,6.3,13.7,14.1 c0,7.8-6.1,14.1-13.7,14.1c-7.6,0-13.7-6.3-13.7-14.1c0-6.6,4.4-12.2,10.4-13.7l-0.2-4c0.1,0,0.1-0.1,0.2-0.1 c-8,1.6-14,8.9-14,17.6c0,9.9,7.8,17.9,17.4,17.9c9.6,0,17.4-8,17.4-17.9C365.2,66.8,357.4,58.8,347.8,58.8z"></path> <path class="st0" d="M347.7,69.8c1.5,0,2.8,0.4,3.9,1.2l0.1-4.3c-1.2-0.5-2.5-0.7-3.8-0.7c-6,0-10.8,5-10.8,11.1 c0,6.1,4.8,11.1,10.8,11.1c6,0,10.8-5,10.8-11.1c0-4.1-2.2-7.7-5.4-9.6l0.1,5.1c1,1.3,1.6,2.9,1.6,4.6c0,4.1-3.3,7.5-7.3,7.5 c-4,0-7.3-3.4-7.3-7.5C340.4,73.1,343.6,69.8,347.7,69.8z"></path> </g> <path class="st0" d="M347.2,58.8l-0.3,19.3l4.8-4.9l0.2-14C351.9,59.2,348.8,58.7,347.2,58.8z"></path> </g> <polygon class="st0" points="370.4,59.6 382.6,95.3 396.7,75.1 401.1,81.6 407.8,63.9 409,64.6 402,85.5 396.2,78.6 394,82.5 403.4,96.1 415.3,59.8 403.8,59.6 400.5,72.3 397.1,67.2 384.1,85.8 376.7,64.3 378.3,63.9 384.6,80.6 394.9,65.4 392.8,62.4 385.5,72.8 380.8,59.8 "></polygon> </g> <g> <linearGradient id="SVGID_2_" gradientUnits="userSpaceOnUse" x1="214.1782" y1="136.3694" x2="213.6783" y2="114.3708"> <stop offset="2.747250e-02" style="stop-color:#9B6026"></stop> <stop offset="0.3132" style="stop-color:#F3AA1D"></stop> <stop offset="0.5495" style="stop-color:#DF9A26"></stop> <stop offset="0.7802" style="stop-color:#FAA821"></stop> <stop offset="1" style="stop-color:#CA7729"></stop> </linearGradient> <path class="st3" d="M207.4,127.1h-3.6v-15.5h2.6l6.6,8.7l-2,2.7l-3.6-4.8V127.1z M221.1,111.6l-9.3,12.4l2,2.7l6.3-8.5v8.9h3.6 v-15.5H221.1z"></path> <linearGradient id="SVGID_3_" gradientUnits="userSpaceOnUse" x1="247.3512" y1="135.6159" x2="246.8513" y2="113.6174"> <stop offset="2.747250e-02" style="stop-color:#9B6026"></stop> <stop offset="0.3132" style="stop-color:#F3AA1D"></stop> <stop offset="0.5495" style="stop-color:#DF9A26"></stop> <stop offset="0.7802" style="stop-color:#FAA821"></stop> <stop offset="1" style="stop-color:#CA7729"></stop> </linearGradient> <path class="st4" d="M250.3,124.6l1.4,2.5h-14.5l8.7-15.5h2.4l8.7,15.5h-3.9l-6.1-11.1l-4.8,8.7H250.3z"></path> <linearGradient id="SVGID_4_" gradientUnits="userSpaceOnUse" x1="279.6142" y1="134.8829" x2="279.1142" y2="112.8838"> <stop offset="2.747250e-02" style="stop-color:#9B6026"></stop> <stop offset="0.3132" style="stop-color:#F3AA1D"></stop> <stop offset="0.5495" style="stop-color:#DF9A26"></stop> <stop offset="0.7802" style="stop-color:#FAA821"></stop> <stop offset="1" style="stop-color:#CA7729"></stop> </linearGradient> <path class="st5" d="M274.1,127.1h-3.6v-15.5h11.6c1.7,0,3.2,0.5,4.4,1.6c1.1,1,1.6,2.1,1.6,3.4c0,1.3-0.5,2.4-1.6,3.4 c-1,0.9-2.2,1.4-3.7,1.5l5.4,5.6h-4.4l-5.2-5.3l-0.2-0.2h-4.3l1.4-2.6h6.6c0.6,0,1.1-0.2,1.5-0.6c0.6-0.5,0.8-1.1,0.8-1.8 c0-0.7-0.3-1.3-0.8-1.8c-0.5-0.4-1-0.6-1.5-0.6h-8V127.1z"></path> <linearGradient id="SVGID_5_" gradientUnits="userSpaceOnUse" x1="310.3882" y1="134.1834" x2="309.8883" y2="112.1846"> <stop offset="2.747250e-02" style="stop-color:#9B6026"></stop> <stop offset="0.3132" style="stop-color:#F3AA1D"></stop> <stop offset="0.5495" style="stop-color:#DF9A26"></stop> <stop offset="0.7802" style="stop-color:#FAA821"></stop> <stop offset="1" style="stop-color:#CA7729"></stop> </linearGradient> <path class="st6" d="M305.8,121.4v5.7h-3.6v-15.5h3.6V121.4l1.3-4.7l5.5-5.1h4.5l-7.7,7l8.9,8.6h-4.4l-7-6.5L305.8,121.4z"></path> <linearGradient id="SVGID_6_" gradientUnits="userSpaceOnUse" x1="339.572" y1="133.5198" x2="339.0721" y2="111.5213"> <stop offset="2.747250e-02" style="stop-color:#9B6026"></stop> <stop offset="0.3132" style="stop-color:#F3AA1D"></stop> <stop offset="0.5495" style="stop-color:#DF9A26"></stop> <stop offset="0.7802" style="stop-color:#FAA821"></stop> <stop offset="1" style="stop-color:#CA7729"></stop> </linearGradient> <path class="st7" d="M335.1,114.1v13h-3.6v-15.5H347l-1.2,2.6H335.1z M336.9,124.5l-1.5,2.6h10.3l1.2-2.6H336.9z M337,118h10 l-1.2,2.6h-9.9L337,118z"></path> <linearGradient id="SVGID_7_" gradientUnits="userSpaceOnUse" x1="368.5013" y1="132.863" x2="368.0014" y2="110.8636"> <stop offset="2.747250e-02" style="stop-color:#9B6026"></stop> <stop offset="0.3132" style="stop-color:#F3AA1D"></stop> <stop offset="0.5495" style="stop-color:#DF9A26"></stop> <stop offset="0.7802" style="stop-color:#FAA821"></stop> <stop offset="1" style="stop-color:#CA7729"></stop> </linearGradient> <path class="st8" d="M369.9,114.1v13h-3.6v-13h-6.9l1.2-2.5h16.2l-1.2,2.5H369.9z"></path> <linearGradient id="SVGID_8_" gradientUnits="userSpaceOnUse" x1="397.5343" y1="132.2022" x2="397.0343" y2="110.2039"> <stop offset="2.747250e-02" style="stop-color:#9B6026"></stop> <stop offset="0.3132" style="stop-color:#F3AA1D"></stop> <stop offset="0.5495" style="stop-color:#DF9A26"></stop> <stop offset="0.7802" style="stop-color:#FAA821"></stop> <stop offset="1" style="stop-color:#CA7729"></stop> </linearGradient> <path class="st9" d="M404.3,111.6l-1.2,2.6h-7.7c-0.6,0-1,0.2-1.3,0.5c-0.3,0.3-0.5,0.7-0.5,1.2c0,0.7,0.6,1.3,1.8,1.6 c0.7,0.2,1.8,0.3,3.2,0.5c1.4,0.2,2.7,0.5,3.8,0.9c2.1,0.8,3.2,2.2,3.2,4.2c0,1.3-0.6,2.4-1.7,3.1c-1,0.6-2.2,0.9-3.7,0.9h-10.9 l1.2-2.6h9.2c0.5,0,0.9-0.1,1.3-0.3c0.4-0.2,0.5-0.6,0.6-1.2c0-0.8-0.4-1.4-1.3-1.8c-0.8-0.3-1.9-0.6-3.6-0.8 c-1.6-0.2-3-0.6-4.1-1c-1.8-0.8-2.7-2-2.7-3.6c0-1.3,0.6-2.3,1.7-3.1c1-0.7,2.3-1.1,3.8-1.1H404.3z"></path> </g> </g> <path class="st2" d="M47.8,39.5l8.6-1.6l42.9,49.9c0,0,4.2,4.1-1.4,8.5l-28,24.2l0.2-11.3l16.5-14.8c0,0,4-2.9,1-7.4l-6.1-7.3 l-6.3-7.7L47.8,39.5z"></path> <path class="st2" d="M128.8,127.3l-15.4-16c0,0-3.1-3.9-7.5-0.7l-7.1,6.4l-7.5,6.5l-31.6,28.4l-1.9-8.5L106.4,99 c0,0,3.9-4.3,8.5,1.1l25.2,27L128.8,127.3z"></path> <path class="st2" d="M79.1,54l11.5-0.3l16,16.5c0,0,3.4,3.7,7.8-0.1s46.1-41.7,46.1-41.7l1.9,8.6L113,82.6c0,0-3.4,3.5-7.8-0.9 C101,77.3,79.1,54,79.1,54z"></path> </g> </svg>